<svg xmlns="http://www.w3.org/2000/svg" id="a" viewBox="0 0 900 320"><defs><style>.j{fill:#576071}.ab,.ac,.ad,.af,.ag,.ah,.ai,.aj,.al,.am,.an,.ao,.ap,.as,.at,.au,.av,.aw,.ax,.az,.ba,.bb,.bc,.bd,.be,.bg,.bh,.j,.l,.m,.n,.o,.p,.q,.r,.s,.t,.u,.v,.w,.x,.y,.z{stroke-width:0}.l{fill:#46382d}.m{opacity:.1}.aw,.m{fill:#1d2432}.n{fill:#545c6d}.o{fill:#d0ab92}.p{fill:#709d52}.q{fill:#8b6651}.r{fill:#68707f}.s{fill:#dfbda5}.t{fill:#216a4b}.u{fill:#d7e056}.v{fill:#35775e}.w{fill:#9a9fa9}.x{fill:#84c8ab}.y{fill:#98c06c}.z{fill:#c3987b}.ab{fill:#f4d75c}.ac{fill:#267a56}.ad{fill:#b7c543}.af{fill:#54ae88}.ag{fill:#c29431}.ah{fill:#e5e87a}.ai{fill:#5bb68f}.aj{fill:#fff7ae}.al{fill:#70bf9d}.am{fill:#a0cf7e}.an{fill:#28835c}.ao{fill:#59763e}.ap{fill:#4b5464}.as{fill:#d8bca9}.at{fill:#5f5044}.au{fill:#47ad82}.av{fill:#d9e256}.aw{opacity:.15}.ax{fill:#787f8d}.az{fill:#8e7e73}.ba{fill:#86b264}.bb{fill:#2d9368}.bc{fill:#99d1b9}.bd{fill:#232a38}.be{fill:#74665b}.bg{fill:#2b8b62}.bh{fill:#33a474}</style></defs><g id="b"><path d="m193.76 218.14 36.56-5.93 31.1 5.28-36.56 6.08-31.1-5.43zM118.89 208.36l27.19-4.1 24.37 5.14-23.29 1.77-28.27-2.81zM40.88 219.56l23.08 9.14 42.97-1.85-15.07-12.72-27.58 2.04-23.4 3.39zM84.1 249.01l38.86-6.75 58.21 10.13-2.75 13.82-75.82-3.99-18.5-13.21zM235.48 259.56l44.32-14.52 25 8.46-7.56 15.02-42.16-.96-19.6-8zM312.42 265.07l7.28-8.79 29.72-2.78 41.17-3.26 19.75.83 12.45 12.28-10.31 7.19-17.84-.37-18.16 7.23-10.73 6.91-16.53-9.83-36.8-9.41zM620.48 226.15l-42.69-5.62-43.68 10.29-33.61 15.25 66.19.61 42.99-8.49 10.8-12.04zM694.48 299.25l-24.27-3.8-25.66 14.6 42.57-1.32 7.36-9.48zM787.69 265.27l-51.1-2.78 14.15-12.46 29.83-3.4 16.77 4.72-9.65 13.92zM862.06 217.37l-28.38-5.21-28.45 14.46 37.19 2.64 19.64-11.89zM646.26 193.06l38.76-3.48 22.51 3.55-27.23 4.95-34.04-5.02zM467.68 209.64l17.13-4.65 27.77 6.36-32.72 8.8-23.24-5.54 11.06-4.97zM235.23 305.12l48.39 4.19 7.06-5.21-39.88-11.47-20.38 3.9 4.81 8.59zM200.02 305.39l13.16-2.92 10.85 3.58-14.42 3.71-9.59-4.37zM152.56 297.04l12.27-3.64 14.34 1.82-4.14 1.82-4.88-.89-1.33.89-2.95-.63-1.75.63-3.86-.89-1.79.89h-5.91zM330.34 307.05l10.77-1.93 13.23 8.18-16.94.75-10.99-4.46 3.93-2.54zM404.86 302.65l7.87-2.53 17.7-2.58 9.51 2.58 11.11 2.53h-6.88l-4.23-1-3.13 1-4.52-1.7-4.18 1.7-4.76-1.7-3.68 1.7-5.03-1.26-2.24 1.26h-7.54zM444.76 296.84l20.54-3.1 22.35 3.8-17.39 3.19-7.13.79-18.37-4.68zM472.09 309.31l11.25 2.21 9.4-2.65-11.82-1.77-8.83 2.21zM592.85 297.13h-7.45v-1.68l-5.48 1.68-3.08-1.68-4.52 1.68-5.23-2.86-3.16 2.86-3.75-1.68-1.2 1.68-3.73-1.43 14.86-2.66h9.91l12.83 4.09zM491.25 255.51l51.02 11.01 90.95-5.33 29.2-3.68-62.21-8.92-88.44 4.97-20.52 1.95zM718.35 283.2h-6.65l-1.89-2.48-4.36 2.48-3.73-2.48-1.75 2.48-3.92-1.24-2.1 1.24-4.09-1.24 11.29-2.74 10.48.77 6.72 3.21zM761.61 303.18h-8.89l-1.46-1.44-5.01 1.44-3.66-3.13-5.32 3.13-4.41-2.15 12.56-3.02 7.52.98 8.67 4.19z" class="m"/></g><circle id="c" cx="290.68" cy="52.11" r="19.61" class="x"/><g id="d"><path d="m233.95 174.54-.76 7.82-1.55 2.65 1.04 2.66-1.46 15.13-2.6 2.39 2.14 2.39-.95 9.91h-6.76l-.48-10.77 1.65-1.53-1.73-.35-.15-3.21 1.88-2.39-2.09-2.38-.84-19.05 10.35-17.18 2.31 13.91z" class="x"/><path d="m221.29 177.81 12.66-3.27 3.79-6.99 6.88 4.24 24.85-6.41-29.3-56.97-14.96 16.2-6.79 15.63 2.87 37.57z" class="bg"/><path d="m227.62 128.55-9.2-15.05-44.6 41.08 22.11 10.82 6.84-3.03.68 6.71 17.84 8.73 6.33-49.26zM233.95 174.54l1.88-25.2 8.79 22.45-10.67 2.75z" class="ac"/><path d="m195.93 165.4 20.65-29.91-13.13 33.59-7.52-3.68z" class="t"/><path d="m247.03 121.75-20.92 18.49-16.97-18.19 16.55-3.69 21.34 3.39z" class="aw"/><path d="m227.62 128.55 19.41-6.8 1.88-3.39 3.87 1.37 7.54-2.64-29.85-43.65-4.34 7.92-5.73 21.47 7.22 25.72z" class="bg"/><path d="m227.62 128.55-31.69-11.15 28.44-45.91 1.76 9.87 1.49 47.19zM247.03 121.75l-7.3-24.23 13.05 22.21-5.75 2.02z" class="ac"/><path d="m233.45 77.79-7.01 13.44-6.42-12.71 13.43-.73z" class="aw"/><path d="m226.13 81.36 14.23-6.94-10.4-49.95-5.66 39.61 1.83 17.28z" class="bg"/><path d="m226.13 81.36-12.77-5.94 16.6-50.95-3.83 56.89z" class="ac"/><path d="m233.19 182.36-6.85 2.97 6.34 2.34.51-5.31zM222.13 196.86l9.51 1.64-9.3 3.13-.21-4.77zM231.22 202.8l-8.73 2.04.08 1.88 8.19.86.46-4.78z" class="ai"/><path d="m140.85 187.2 1.25 9.41 1.73 2.03-1.18 2.02 1.09 8.17h5.05l-.81-13.8-2.01-2.31 1.76-1.8-.84-14.31-6.04 10.59z" class="x"/><path d="m145.97 148.77 4.58-3.54 21.6 34.83-9.78 2.23-4.3-1.64-.97 2.84-3.33.76-2.78-1.96-1.19 2.87-8.95 2.04-2.89-19.69 8.01-18.74z" class="bg"/><path d="m145.97 148.77-8.01-5.43-25.95 34.19 11.71 3.92 4.27-2.3.8 4 12.06 4.05 5.12-38.43z" class="ac"/><path d="m147.73 190.92-6.09 2.23 6.34 1.88-.25-4.11zM142.1 196.61l6.04 1.18-5.49 2.87-.55-4.05z" class="ai"/><path d="m162.37 182.29-8.6-17.37 3.33 18.57 5.27-1.2zM153.77 184.25l-3.19-10.04-.78 10.95 3.97-.91z" class="ac"/><path d="m123.72 181.45 12.58-24.54-7.51 26.24-5.07-1.7z" class="t"/><path d="m151.83 147.29-7.02 9.62-8.69-11.15 7.86-.53 7.85 2.06z" class="aw"/><path d="m160.02 145.23-4.97 1.25-2.2-1.49-1.02 2.3-5.86 1.48-5.91-13.62 2.04-9.99 3.59-3.63 14.33 23.7z" class="bg"/><path d="m142.1 125.16-3.44-3.63-9.67 22.05 3.59 1.09 2.69-1.33.85 2.42 2.87.87 1.07-1.14 1.08 1.8 4.83 1.48-3.87-23.61z" class="ac"/><path d="m136.12 145.76 1.84-9.53-5.38 8.44 3.54 1.09zM138.99 146.63l1.86-7.48.29 8.14-2.15-.66z" class="t"/><path d="m151.83 147.29-3.04-12.89 6.26 12.08-3.22.81z" class="ac"/><path d="m146.98 123.67-4.12 6.1-5.09-6.2 9.21.1z" class="aw"/><path d="m142.1 125.16 9.07-2.77-7.19-23.06-2.99 18.32 1.11 7.51z" class="bg"/><path d="m142.1 125.16-7.57-2.77 9.45-23.06-1.88 25.83z" class="ac"/><path d="m687.76 170.01-1.32 9.42-1.84 1.03 1.52 1.22-.39 2.81-1.49 1.13 1.07 1.87-.89 6.35h-5.26l-1.11-11.25.99-2.13-1.41-2.12-.46-4.66.99-.63-1.21-1.56-1.05-10.65 11.86 9.17z" class="x"/><path d="m673.2 99.85-36.08 57.73 15.48 3.8 4.89-2.9 1.3 4.42 6.55 1.61 5.59-3.44 5.6 6.18 11.23 2.76 3.91-33.54-8.71-31.61-9.76-5.01z" class="bg"/><path d="m682.96 104.86 9.62-5.32 38.36 57.2-15.11 4.64-9-.54-3.97 4.53-15.1 4.64-4.8-65.15zM652.6 161.38l9.82-18.68-3.63 20.2-6.19-1.52zM665.34 164.51l9.04-33.65 2.15 36.39-11.19-2.74z" class="ac"/><path d="m715.83 161.38-17.99-28.47 5.02 32.46 12.97-3.99z" class="t"/><path d="m671.77 102.13 12.18 16.11 10.33-16.16-14.21-5.39-8.3 5.44z" class="aw"/><path d="m682.96 104.86-11.19-2.73-2.49-4.48-2.91 3.16-9.09-2.22 15.39-29.4 3.86 3.53 6.43 10.63v21.51z" class="bg"/><path d="m682.96 104.86 7.66-1.88.09-3.13 3.57 2.23 10.37-2.54-22.31-29.4-5.81 2.58 6.43 32.14zM671.77 102.13l1.04-15.03-6.44 13.71 5.4 1.32z" class="ac"/><path d="m694.28 102.08-7.14-11.69 3.48 12.59 3.66-.9z" class="t"/><path d="m671.59 71.26 6.37 8.6 5.66-8.04-7.09-2.63-4.94 2.07z" class="aw"/><path d="m666.29 69.69 10.24 3.03 4.5-13.91V31.5l-14.74 38.19z" class="bg"/><path d="m676.53 72.72 12.96-1.64-8.46-39.58-4.5 41.22z" class="ac"/><path d="m686.44 179.43-8.81-1.09.42 4.25 8.07-.91.32-2.25zM685.73 184.49l-7.57-.73 7.15 3.73.42-3zM676.95 171.49l10.13 4.39-9.91-2.2-.22-2.19z" class="ai"/><path d="m549.3 91.9-43.01 56.02 38.11 7.2 17.52-31.54V98.29L549.3 91.9z" class="bb"/><path d="m563.9 92.12 30.96 58.05-50.46 4.95 12.74-54.35 6.76-8.65z" class="an"/><path d="m545.44 96.92 9.13 14.83 12.14-14.36-10.63-5.49-10.64 5.02z" class="aw"/><path d="m548.86 45.79-18.84 46.06 9.07 2.98 4.95-2.55 1.4 4.64 11.7 3.85 2.83-33.27-7.26-15.69-3.85-6.02z" class="bb"/><path d="m557.14 100.77 9.57-3.38.23-4.64 4.99 2.79 11.36-4.01-29.15-48.51-1.43 8.79 4.43 48.96zM545.44 96.92l2.5-22.81-8.85 20.72 6.35 2.09z" class="an"/><path d="m566.71 97.39-4.79-22.04 10.01 20.19-5.22 1.85z" class="ac"/><path d="m547 50.34 6.48 9.97 4.58-10.76-4.7-1.75-6.36 2.54z" class="aw"/><path d="m544.02 13.14-6.78 34.7 5.16 1.32 2-2.07 2.6 3.25 5.71 1.47V32.7l-8.69-19.56z" class="bb"/><path d="m544.02 13.14 22.92 32.66-6.18 2.61-2.7-.61v1.75l-5.35 2.26-8.69-38.67zM547 50.34l-3.49-11.51-1.11 10.33 4.6 1.18z" class="an"/><path d="m558.06 49.55-6.94-18.71 9.64 17.57-2.7 1.14z" class="ac"/><path d="m489.89 173.42-.46 4.99-1.78.7 1.46 2.87-1.46 16.02h-4.44l-3.87-34.32 10.55 9.74z" class="x"/><path d="m433.55 162.89 43.07-55.15 8.6 4.01 12.55 29.71-7.88 31.96-9.65-1.8-6.82-6.67-7.76 3.94-4.2-.78-3.42-5.77-6.02 4.01-18.47-3.46z" class="bb"/><path d="m489.89 173.42 8.88-1.46 3.22-5.12 4.3 3.88 32.98-5.42-42.43-57.75-11.62 4.2 4.67 61.67z" class="an"/><path d="m489.43 178.41-8.51-.73 8.19 4.3.32-3.57z" class="ai"/><path d="m452.02 166.35 13.24-22.04-3.8 23.8-9.44-1.76zM465.66 168.88l9.95-33.19 4.63 35.93-14.58-2.74z" class="an"/><path d="m498.77 171.96-1.08-19.07 8.6 17.83-7.52 1.24z" class="ac"/><path d="m470.66 115.37 16.35 19.96 15.16-20.53-18.03-4.49-13.48 5.06z" class="aw"/><path d="m452.7 110.33 33.12 9.3 8.32-24.09-9.33-38.95-6.41-5.33-25.7 59.07z" class="bb"/><path d="m485.82 119.63 26-7.67 1.31-4.82 4.21 3.19 6.29-1.85-32.7-57.22-6.12 5.33 1.01 63.04z" class="an"/><path d="m517.34 110.33-11.05-17.57 5.53 19.2 5.52-1.63z" class="ac"/><path d="m477.2 54.03 7.8 15.58 8.25-14.29-8.1-2.73-7.95 1.44z" class="aw"/><path d="m484.81 56.59-7.61-2.56-.58-2.77-3.69 1.33-5.5-1.85 26-44.2-2.18 30.03-6.44 20.02z" class="bb"/><path d="m484.81 56.59 8.44-1.27 2.13-2.73 2.39 2.04 5.5-.83-9.84-47.26-8.62 50.05zM477.2 54.03l3.82-16.55-8.09 15.11 4.27 1.44z" class="an"/><path d="m493.25 55.32.89-9.54 3.63 8.85-4.52.69z" class="ac"/></g><g id="e"><path d="m660.07 224.46 34.49 12.7-13.19 19.43-6.02-2.51-.65-3.03-2.93 1.53-3.67-1.53-.89-4.79-8.14 1.02-6.9-2.89 7.9-19.93z" class="w"/><path d="m687.03 240.82 51.33-3.26-1.77 24.93-11.46-1.22-5.24-3.53-3.15 2.63-3.61-.39-1.98-2.75-2.8 2.24-6.17-.66-3.24-2.86-4.38 2.05-13.19-1.41 5.66-15.77z" class="r"/><path d="m731.63 243.03 12.65-8.4 29.12-7.17 9.5 25.37-5.32 1.11-3.91-2.83-.88 3.83-16.45 3.43-4.88-.94-3.41 2.67-11.46 2.39-4.96-19.46z" class="j"/><path d="m659.07 247.28 13.45-17.77 2.83 4.16-7.25 17.38-9.03-3.77z" class="ax"/><path d="m694.56 258 6.53-16.48 1.09 17.29-7.62-.81zM708.98 241.91l-.63 17.56 4.78.51 1.69-20.31-5.84 2.24zM718.16 242.36l-1.42 18.01 8.39.9-5.52-20.45-1.45 1.54z" class="j"/><path d="m680.21 237.56-8.44 15.02 3.58 1.5 4.86-16.52z" class="ax"/><path d="m739.42 237.56 8.63 22.54 8.29-1.73-9.75-25.69-7.17 4.88zM752.66 235.19l13.6 21.11-9.92-25.21-3.68 4.1zM764.45 230.8l8.34 24.14 4.79-1-12.06-24.43-1.07 1.29z" class="ap"/><path d="m660.07 224.46 43.6-8.47 69.73 11.47-41.77 15.57-44.6-2.21-26.96-16.36z" class="am"/><path d="m681.37 227.46 8.5-25.72 15.57 1.45 12.74 5.56 4.8 10.42-11.83 13.51-16.59-2.91-.45-3.55-3.77 2.81-8.97-1.57z" class="w"/><path d="m711.15 232.68 19.28-3.42 3.32-4.1 5.67 2.5 4.04-.72.91-4.08 3.51 3.3 8.46-1.51-5.6-26.39-23 2.3-9.56 8.19-7.03 23.93z" class="r"/><path d="m690.34 229.03 8.6-26.44 3.79.6-8.17 26.58-4.22-.74zM705.26 205.47l-6.32 25.07 12.21-24.86-5.89-.21z" class="ax"/><path d="m730.43 229.26-4.82-26.07 4.82 1.61 8.99 22.86-8.99 1.6zM743.46 226.94l-6.15-24.35 2.11-2.03 8.46 25.6-4.42.78z" class="j"/><path d="m689.87 201.74 35.74-8.61 25.13 5.13-32.56 10.49-28.31-7.01z" class="am"/><path d="m771.55 220.28 10.95-28.56h32.48l-1.31 21.41-8.44 13.49-14.02-2.64-3.52-5.01-8.04 2.84-8.1-1.53z" class="w"/><path d="m810.66 196.24 4.32-4.52 26.76.41 6.85 27.81-8.94 1.38-2.25-1.11-1.23 1.64-9.26 1.43-4.33-3.43-2.68 4.51-14.67 2.26 5.43-30.38z" class="r"/><path d="m779.65 221.81 16.08-27.97-4.52 30.14-11.56-2.17z" class="ax"/><path d="m818.25 195.23 1.65 29.13 7.01-1.08-8.66-28.05zM822.58 194.66l6.38 19.09-2.05-22.13-4.33 3.04zM836.17 221.85l-7.21-28.01 1.6-1.71 9.09 29.19-3.48.53z" class="j"/><path d="m801.53 192.13-2.3 17.67 6-15.96-3.7-1.71z" class="ax"/><path d="m782.5 191.72 27.17-4.79 32.07 5.2-31.08 4.11-28.16-4.52z" class="am"/><path d="m615.35 290.05-7.43 11.86 10.23 2.27 6.76-3.02 1.32 4.82 18.32 4.07 3.89-17.52-33.09-2.48z" class="w"/><path d="m641.27 298.01 9.65-7.96 21.29-2.13 8.45 15.05-17.43 3.41-6.77-2.35-.85 3.85-11.06 2.17-3.28-12.04z" class="r"/><path d="m623.41 292.53-5.26 11.65 8.08 1.8 2.04-13.45h-4.86zM632.91 295.45l-2.6 11.43 6.73-11.43h-4.13z" class="ax"/><path d="m655.61 307.88-5.93-15.35h3.9l9.65 13.85-7.62 1.5zM659.99 290.05l8.55 15.29-5.31-16.49-3.24 1.2z" class="j"/><path d="m615.35 290.05 24.6-6.57 32.26 4.44-30.94 10.09-25.92-7.96z" class="am"/><path d="m441.36 206.24 77.38 5.77-18.24 34.06-11.56-2.18-2.12-4.67-5 3.33-6.23-1.17-2.87-2.73-4.09 1.42-7.54-1.42-4.47-4.03-5.14 2.23-11.58-2.18 1.46-28.43z" class="w"/><path d="m506.39 217.66 23.8-12.35 51.99.91 6.08 28.82-26.34 3.31-3.72-4.08-1.6 4.75-23.8 2.99-1.14-2.99-4.08 3.64-27.08 3.41 5.89-28.41z" class="r"/><path d="m476.62 209.69 2.62 32.38 5.98-33.46-8.6 1.08zM489.54 212.01l-7.72 30.54 7.12 1.34 4.49-31.88h-3.89zM475.59 241.38l-4.58-16.08-2.38 14.77 6.96 1.31z" class="ax"/><path d="m527.58 242.66 2.66-22.89 2.56 22.24-5.22.65zM556.6 239.02l-8.4-30.41h8.4l5.32 29.74-5.32.67zM559.97 208l10.24 29.31-5.12-31.84-5.12 2.53z" class="j"/><path d="m461.09 238.65 4.91-29.34h-4.01l-10.51 27.54 9.61 1.8z" class="ax"/><path d="m582.18 206.22-18.28-3.65-32.24-6.45-55.04 6.34-35.26 3.78 65.03 11.42 75.79-11.44z" class="am"/><path d="m456.62 204.6 7.79.6 2.53-1.14 1.06 1.42 3.01.23 1.08-1.23.65 1.36 8.28.64 5.8-1.47 3.02 2.15 1.82.14 2.65-1.06.9 1.34 8.66.66 7.64-9.02 1.75-10.5-46.76-2.18-9.88 18.06z" class="w"/><path d="m509.42 192.68 5.7-5.07 37.77 2.59 11.01 12.37-12.08 1.14-4.81-2.04-2.61 2.74-21.23 2.01-7.09-2.01-2.82 2.95-9.39.88 5.55-15.56z" class="r"/><path d="m481.02 206.48 11.6-17.76-2.78 18.44-8.82-.68zM491.66 207.3l6.37-19.69 5.84 3.76-8.66 16.21-3.55-.28zM483.51 187.75l-2.05 9.85 5.36-9.85h-3.31z" class="ax"/><path d="m511.51 192.56 1.75 14.8 9.91-.94-4.43-14.27-2.66-2.22-4.57 2.63zM551.82 203.71l-11.37-12.8 3.95 13.5 7.42-.7z" class="j"/><path d="m464.41 205.2 10.61-18.07 2.91 1.04-5.19 17.67-1.73-.13.71-6.54-3.72 6.31-3.59-.28z" class="ax"/><path d="m466.5 186.54 53.63-5.66 32.76 9.32-43.47 2.48-42.92-6.14z" class="am"/><path d="m229.36 254.61-10.59-24.87-58.04 5.08 9.91 16.13 7.78 15.26 11.3-2.58 2.33-2.71 5.3.98 5.37-1.23 2.47-2.26 4.38.71 3.1-.71 1.94-2.31 3.95.97 10.8-2.46z" class="w"/><path d="m170.64 239.01-9.91-7.11h-42.18l-10.01 19.69 16 3.35 1.5-1.22.69 1.68 18.59 3.88 4.81-1.56 1.33 2.85 6.1 1.27 3.17-.86 2.96 2.14 14.73 3.09-7.78-27.2z" class="r"/><path d="m218.55 257.03-10.99-25.13-6.48-.57 11.59 27.08 5.88-1.38zM209.57 259.12l-17.18-24.3 10.33 25.85 6.85-1.55zM197.35 261.9l-10.01-26.11 2.38 27.84 7.63-1.73z" class="ax"/><path d="m160.14 237.58 3.55 25.54-6.13-1.28 1.57-15.08-7.67 13.81-6.14-1.29 7.97-25.79 6.85 4.09zM141.64 235.05l-7.8 21.83 2.08-22.61 4.16-1.6 1.56 2.38zM132.88 233.86l-6.15 21.54-2.19-.46 4.25-23.04 4.09 1.96z" class="j"/><path d="m218.77 229.74-46.54-10.8-53.68 12.96 52.09 7.11 48.13-9.27z" class="am"/><path d="m200.08 225.4-17.92 2.64-2.91-1.24-.83 1.79-7.78 1.15-8.38-7.57 3.54-8.62 27.96-1.41 6.32 13.26z" class="w"/><path d="m170.64 229.74-12.27-1.45-2.23-2.47-2.83 1.88-11.67-1.38 5.52-15.15 18.64 2.38 4.84 16.19z" class="r"/><path d="m183.5 211.17 7.06 15.63-13.79-16.73 6.73 1.1zM175.82 213.05l6.34 14.99-3.74.55-5.07-17.42 2.47 1.88z" class="ax"/><path d="m160.73 212.9-2.36 15.39-5.06-.59 6.35-16.53 1.07 1.73zM156.14 212.32l-6.01 15 3.18-16.15 2.83 1.15z" class="j"/><path d="m147.16 211.17 24.54-4.39 22.06 5.36-27.96 1.41-18.64-2.38z" class="am"/><path d="m329.56 299.71-7.2-21.3-38.74 8.14v22.76l10.82-2.26 2.85-2.95 2.84 1.76 11.95-2.5 2.32-2.34 5.3.75 9.86-2.06z" class="w"/><path d="m288.26 290.53-11.8-8.41-23.59-.44-13.74 18.25 12.89 2.72 5.52-.72 1.37 2.17 9.1 1.92 3.36-1.92 1.52 2.95 10.73 2.26 4.64-18.78z" class="r"/><path d="m319.7 301.77-11.15-21.11h-1.96l5.49 22.7 7.62-1.59zM308.55 304.1l-5.44-18.85h-6.79l12.23 18.85zM300.13 305.86l-4.32-9.06-1.37 10.25 5.69-1.19z" class="ax"/><path d="m279.8 286.55-6.91 20.5-4.88-1.03 3.79-20.77 8 1.3zM267.09 285.25l-8.18 18.85-6.89-1.45 15.07-17.4z" class="j"/><path d="m322.36 278.41-42.56-4.14-26.93 7.41 35.39 8.85 34.1-12.12z" class="am"/><path d="m364.63 299.49 3.66 9.88-4.5 1.27-3.37-1.62-.04 2.58-6.04 1.7-4.87-11.3 15.16-2.51z" class="w"/><path d="m352.55 303.47-2.61-2.67-10.85-1.31-4.26 9.88 11.18 2.25 1.22-.58.84 1 6.27 1.26-1.79-9.83z" class="r"/><path d="m359.25 301.26 4.54 9.38-3.41.96-1.13-10.34z" class="ax"/><path d="m350.31 302.81-2.24 9.23-2.06-.42 2.06-10.36 2.24 1.55zM346.01 301.54l-4.29 9.22 2.56-11.27 1.73 2.05z" class="j"/><path d="m364.63 299.49-14.75-3.04-10.79 3.04 13.46 3.98 12.08-3.98z" class="am"/><path d="m124.7 195.03 4.09 26.16-5.83 1.51-1.99-1.37-1.36 2.24-4.1 1.06-2.33-1.47-.7 2.25-5.55 1.44-10.86-15.5-4.36-15.37 32.99-.95z" class="w"/><path d="m106.93 226.85-9.38-1.12-3.63-2.57-1.86 1.92-4.12-.49-4.02-2.56-1.65 1.88-6.28-.75-2.69-2.66-2.87 2-10.93-1.31 10.85-26.16h21.36l4.36 2.76 10.86 29.06z" class="r"/><path d="m122.96 222.7-8.15-26.72 4.8 27.59 3.35-.87zM112.48 225.41l-8.96-28.34 3.41-2.04 8.58 29.6-3.03.78z" class="ax"/><path d="m77.17 195.76-6.74 26.74 5.56.66 6.28-28.13-5.1.73zM85.11 196.61l-2.84 27.3 5.67.68-2.83-27.98zM92.06 225.08l-1.77-14.14 7.26 14.79-5.49-.65z" class="j"/><path d="m124.7 195.03-28.63 2.76-25.72-2.76 24.66-3.2 29.69 3.2z" class="am"/></g><g id="f"><path d="m498.03 300.73 12.01-3.19 10.09 3.19-10.09 3.62-12.01-3.62zM524.58 305.92l7.45 2.24 8.95-2.83-9.68-2.24-6.72 2.83zM800.35 269.96l9.25-3.05 16.66 4.15-17.84 3.99-8.07-5.09zM706.79 199.61l9.04 2.13 7.15-2.48-7.15-1.53-9.04 1.88zM727.74 199.26l6.01 1.54 6.73-2.54-7.96-1.41-4.78 2.41z" class="m"/><path d="m710.23 187.13 6 13.81-1.32-16.24-4.68 2.43z" class="an"/><path d="m715.31 189.58-11.19-3.57 7.81-9.52 11.97 5.17-8.59 7.92z" class="av"/><path d="m710.23 183.76 3-3.14 3 1.97-3.1 3.03-2.9-1.86z" class="aj"/><path d="m732.52 188.05-.89 11.21 5.68-11.77-4.79.56z" class="an"/><path d="m729.27 186.58 6.06 5.01 8.93-3.54-8.85-4.9-6.14 3.43z" class="av"/><path d="m733.75 186.93 2.04-1.31 2.21 1.87-2.13 1.04-2.12-1.6z" class="aj"/><path d="m809.24 272.82-2.94-24.08 5.45 7.79-2.51 16.29z" class="bh"/><path d="m811.75 256.53-14.41-5.18 16.75-11.71 14.87 8.47-17.21 8.42z" class="av"/><path d="m806.3 248.74 6.72-3.3 5.11 2.64-5.92 4.08-5.91-3.42z" class="aj"/><path d="m531.66 307.1-4.08-11.86 6.02-.88-1.94 12.74z" class="bh"/><path d="m532.91 298.88-12.34-3.46 10.73-7.98 11.33 4.76-9.72 6.68z" class="av"/><path d="m528.71 293.65 3.06-2.36 3.31 1.53-4.13 2.6-2.24-1.77z" class="aj"/><path d="m92.47 291.84 7.41-2.36 10.15 3.19-11.68 2.35-5.88-3.18z" class="m"/><path d="m98.44 281.26.38 12 3.75-10.58-4.13-1.42z" class="bh"/><path d="m101.44 285.88-8.17-5.84 9.3-3.42 9.64 3.89-10.77 5.37z" class="av"/><path d="m99.53 280.63 2.59-1.53 2.83 1.53-3.18 1.77-2.24-1.77z" class="aj"/><path d="m513.6 284.91-2.92 17.67-4.19-16.32 7.11-1.35z" class="bh"/><path d="m521.66 282.68-14.23 7.25-13.29-5.57 13.45-6.91 14.07 5.23z" class="av"/><path d="m504.22 283.69 3.68-2.16 4.11 1.08-5.52 3.65-2.27-2.57z" class="aj"/><path d="m163.65 210.07 8.61-1.94 8.91 2.04-9.02 1.91-8.5-2.01z" class="m"/><path d="m170.64 211.09 1.91-18.46 7.12 2.03-9.03 16.43z" class="an"/><path d="m176.77 199.93-10.85-10.91 15.25-2.88 12.59 8.52-16.99 5.27z" class="av"/><path d="m175.95 191.78 3.72-1.8 4 2.65-5.91 2.03-1.81-2.88z" class="aj"/><path d="m458.59 277.9 3.43 20.98h3.2l2.46-13.85-9.09-7.13z" class="au"/><path d="m459.56 278.41-6.3 7.19 13.61 3.99 2.93-6.47-5.57-2.96-4.67-1.75z" class="bc"/><path d="m466.87 289.59 11.91-3.62-6.71-9.32-4.39 8.38-.81 4.56z" class="ai"/><path d="m445.23 278.41 22.45 6.62 3.56-12.16-5.94-19.95-20.07 25.49z" class="ba"/><path d="m465.3 252.92 22.59 24.98-20.21 7.13-2.38-32.11z" class="p"/><path d="m477.22 300.73 2.33 9.54h1.97l1.04-11.15-5.34 1.61z" class="au"/><path d="m482.13 303.71-11.87-2.98 10.95-10.77 2.74 6.88-1.82 6.87z" class="ba"/><path d="m481.21 289.96 11.53 9.16-10.61 4.59-.92-13.75z" class="p"/><path d="m213.29 305.97 3.07-14.96-6.35-.55.92 15.51h2.36z" class="au"/><path d="m219.31 289.53 4.72 5.62-9.14 2.14-1.48-6.6 5.9-1.16z" class="bc"/><path d="m214.89 297.29-13.16-1.84 4.42-6.88 9.4 5.92-.66 2.8z" class="ai"/><path d="m215.55 294.49 18.15-4.96-20.21-15.06-3.48 10.62 5.54 9.4z" class="ba"/><path d="m213.49 274.47-19.63 14.31 21.69 5.71-2.06-20.02z" class="p"/><path d="m412.4 302.65-8.31-16.63 15.58 16.63-4.63-22.78 13.07 22.78 5.72-22.43 2.98 22.43 11.69-13.59-4.33 13.59H412.4zM554.67 297.13h30.73l6.85-9.23-12.33 9.23 2.65-15.32-10.25 15.32-6.62-20.28-1.77 20.28-6.09-14.85 1.14 14.85-8.97-8.84 4.66 8.84zM689.58 283.2h22.12l4.24-12-10.49 12-7.9-15.26 2.42 15.26-8.44-9.13 2.42 9.13-9.45-6.57 5.08 6.57zM731.65 303.18h21.07l4.49-12.42-10.96 12.42-1.04-18.95-7.94 18.95-11.45-11.43 5.83 11.43zM158.47 297.04h22.64l5.23-13.41-11.31 13.41-3.95-15.01-2.26 15.01-5.59-9.93.89 9.93-10.16-7.48 4.51 7.48z" class="al"/></g><g id="g"><path d="m268.6 209.86-11.88-1.46-1.41 4.1 14.69 4.67-1.4-7.31z" class="be"/><path d="m297.24 268.52 8.27-1.88 2.92-2.28 3.99.71 5.43-1.24 3.94-3.21 5.48 1.07 18.26-4.14-13.9-42.23-13.35-1.19-25.93 13.22-1.61 17.69 6.5 23.48z" class="az"/><path d="m300.67 226.84-3.43 41.68-12.43-2.29-2.98-2.92-3.32 1.77-2.25-.41-1.26-1.95-2.47 1.26-3.67-.67-1.77-2.57-4.48 1.42-4.49-.82 9.5-39.35 16.51-5.91 16.54 10.76z" class="be"/><path d="m256.35 183.93 11.27 38.06 33.05 4.85-3.58-43.25-40.74.34z" class="at"/><path d="m293.81 192.14 6.86 34.7 16.47-5.8 14.49-5.72-3.29-33.63-34.53 10.45z" class="be"/><path d="m276.31 188.31 10.98 36.56 1.21 1.97 2.18-1.47-6.33-35.3-3.12-3.53-4.92 1.77zM275.77 223.19l-3.82-26.52 7.59 27.07-2.37.89-1.4-1.44z" class="l"/><path d="m279.54 223.74-10.68 39.57-6.25-1.15 13.16-38.97 3.77.55zM290.68 225.37l-5.87 40.86-6.3-1.15 8.78-40.21 3.39.5zM279.54 241.8l-7.01 22.18 3.73.69 3.28-22.87zM300.67 191.26l7.76 32.84 2.84 1.81 2.48-3.68-3.45-32.22-2.66-2.05-6.97 3.3z" class="at"/><path d="m308.43 224.1 9.42 39.73 9.42-2.14-13.52-39.46-5.32 1.87zM305.51 266.64l-2.22-40.73 9.13 39.16-6.91 1.57z" class="be"/><path d="m256.35 183.93 37.46 8.21 28.73-3.71 5.8-6.74-33.1-12.19-27.15 4.16-11.74 10.27z" class="az"/><path d="m266.75 179.66 27.06 8.3 28.08-5.5-10.15-5.14-24.89-3.66-20.1 6z" class="be"/><path d="m278.98 179.62 13.61-3.27 13.49 4.46-13.73 4.04-13.37-5.23z" class="az"/><path d="m288.14 179.59 5.14-1.14 3.62 2.15-6.22 1.56-2.54-2.57z" class="be"/><path d="m293.28 178.45 19.44-6.48 21.64 10.49-4.65 33.62 9.17 21.25 6.65 20.22-33.11 7.52 4.65-30.53-8.64-10.44 1.87-34.09-17.95-5.16.93-6.4z" class="m"/></g><g id="h"><path d="m628.2 248.39-4.76 12.8h9.78l2.04-8.55-4.72-4.25h-2.34zM601.03 245.81l-2.72 9.26h-10.36l6.91-13.74 3.69-1.46 2.48 5.94zM539.68 248.46l-5.78 13.57h10.48l2.63-6.58-3.56-6.99h-3.77zM520.13 248.59l-2.99 8.92h-10.75l6.9-13.29h4.64l2.2 4.37z" class="n"/><path d="m633.9 153.1 5.43 12.56-12.5 3.75.86-8.16 6.21-8.15z" class="o"/><path d="m474.49 87.38-9.08-3.55 2.18 9.98 8.99 7.89 6.59-1.03-.71-8.77-7.97-4.52z" class="be"/><path d="m491.25 95.54 2.18-8.87-16.32-16.85-.49 17.74 7.69 13.11 6.94-5.13z" class="be"/><path d="m477.11 69.82 8.11 28.61-2.76 1.32-7.97-12.37 2.62-17.56z" class="at"/><path d="m527.84 208.61-7.71 39.98-6.84-4.37 4.64-42.02 5.47-3.46 4.44 9.87z" class="be"/><path d="m519.98 171.62-2.05 30.58 9.91 6.41 5.3-3.13-.34-15.55-12.82-18.31z" class="l"/><path d="m607.55 202.27-6.52 43.54-6.17-4.48 1.29-36.02 2.28-6.57 9.12 3.53z" class="be"/><path d="m582.18 191.74 13.97 13.57 11.4-3.04-2.98-9.08-7.61-7.57-14.78 6.12z" class="at"/><path d="m604.57 193.19 21.98 17.69 7.35 2.3 5.59-11.51-15.52-19.71h-10.44l-8.96 11.23z" class="az"/><path d="m533.14 205.48 6.54 42.98 7.33 6.99-1.71-47.21-4.93-10.24-7.23 7.48z" class="be"/><path d="m519.98 171.62 13.16 33.86 12.16 2.76 7.59-18.04-12.5-12.55-20.41-6.03zM585.45 170.38l22.1 10.85-25.37 10.51-29.29-1.54-9.44-12.27 4.72-12.27 18.41-4.25 18.87 8.97z" class="at"/><path d="m607.65 133.08 4.35 3.31 2.89 6.38 7.14 1.27 11.87 9.06-24.85 17.52-23.6-.24v-13.92l22.2-23.38z" class="az"/><path d="m568.94 138.29 5.68-.76 6.41.11 7.23-1.95 19.39-2.61-22.2 37.3-37.28-4.72-.23-10.62 21-16.75z" class="be"/><path d="m527.58 130.03 8.85 1.77 6.44 3.73 6.43-1.16 19.64 3.92-20.77 27.37-9.91 8.26-18.28-2.3-.12-24.36 7.72-17.23z" class="az"/><path d="m491.25 95.54 18.17 17.25 1.88 6.27 6.63 1.81 9.65 9.16-7.6 41.59-23.01-39.64-5.72-36.44z" class="be"/><path d="m491.25 95.54 28.73 76.08-26.55-29.71-12.41-19.61 10.23-26.76z" class="at"/><path d="m487.17 113.77 6.26 28.14-10.05-11.25-.92-12.13 4.71-4.76z" class="l"/><path d="m491.25 95.54-36.14 8.11-15.83 21.82 2.24 7.77 5.54 2.29 22.77-13.23 21.42-26.76z" class="az"/><path d="m439.28 125.47 7.78 10.06-7.12 2.38-2.2-6.22 1.54-6.22z" class="o"/><path d="m447.06 135.53 36.32-4.87 7.87-35.12-44.19 39.99z" class="be"/><path d="m439.28 125.47-6.6 6.11 7.26 6.33-.66-12.44z" style="fill:#454d5d;stroke-width:0"/><circle cx="459.57" cy="113.4" r="3.07" style="fill:#2e3544;stroke-width:0"/><path d="m519.98 171.62 32.91 18.58-4.72-24.54-28.19 5.96z" class="be"/><path d="m604.57 193.19-22.39-1.45 16.25-13.69 6.14 15.14z" class="l"/><path d="m585.45 170.38 19.12 22.81 19.4-11.23 9.93-28.86-48.45 17.28zM639.49 201.67l-4.23 50.97-7.06-4.25-1.65-37.51 12.94-9.21z" class="be"/><path d="m509.42 112.79-2.19 5.87 4.25 5.35 6.45-3.14-8.51-8.08zM511.51 130.03l4.93-2.12 2.3 4.78-4.96 1.94-2.27-4.6zM513.43 140.83l2.65 2.83-3.01 1.77-1.77-3.01 2.13-1.59zM581.03 147.55l3.89 4.07 4.96-4.25-5.13-4.24-3.72 4.42zM568.64 148.26l6.55 1.95-1.77 5.84-5.84-2.3 1.06-5.49zM613.77 169.67l3.01-5.66 5.31 4.25-3.01 6.55-5.31-5.14z" class="o"/><path d="m531.66 145.43 3.71-2.48 3.72 3.01-3.9 3.36-3.53-3.89zM543.69 143.13l6.55-1.24 2.47 4.95-6.72 1.95-2.3-5.66zM603.15 150.74l5.13-2.66 3.72 3.37-4.25 4.07-4.6-4.78zM536.43 131.8l3.47 7.43 7.11-1.32 2.29-3.54-12.87-2.57zM612 136.39l-2.32 5.52 5.5 4.27 6.85-2.14-10.03-7.65z" class="as"/><path d="m574.62 137.53 3.17 3.76 8.11-2.06 2.36-3.54-13.64 1.84z" class="o"/></g><g id="i"><path d="m383.14 194.78-6.61 3.29-9.1 4.61 3.45 7.26 10.53 1.41 6.5-10.79-1.55-4.42-3.22-1.36z" class="ba"/><path d="m387.91 185.44 10.07 2.22 1.48 10.41-11.55 2.49-2.06-2.49-.9-4.06 2.96-8.57z" class="z"/><path d="m397.25 179.41-1.63 2.28-.47 1.17-7.24 17.7 3.67 1.68 1.41-4.26 5.89-15.52.58-1.54-2.21-1.51z" class="ac"/><path d="m400.87 185.12 1.3 2.84-1.06 1.25.45 1.19 1.61 6.83-3.71 3.33-6.47-2.58-.17-7.44.86-1.73 3.73-2.49 3.46-1.2z" class="s"/><path d="m392.82 190.54-.04-1.88 1.43-2.34h3.2l-4.59 4.22z" class="z"/><path d="m383.14 194.78 2-10.38 5.88-2.71 6.39 4.63-4.63 2.34-3.12-1.93.51 8.31-4.32 3.03-2.71-3.29zM412.48 255.04v15.5h14.92l10.91-4.37-16.55-13.51-7.1-4.27-2.18 6.65z" class="s"/><path d="m427.4 270.54 19.14-10.05-5.3 10.05H427.4z" class="z"/><path d="M365.75 270.17v14.14h11.65l8.96-.98.85-3.94-9.87-15.34-8.03-3.94-3.56 10.06z" class="s"/><path d="m377.4 284.31 14.13-9.83 1.88 9.83H377.4z" class="z"/><path d="m369.66 177.74 6.87 20.33-29.17 8.33-18.77 2.99-.53-18.17 3.9-25.29 30.23 8.66 7.47 3.15z" class="ba"/><path d="m376.53 198.07-7.34 17.25-14.98 4.73-12.34 4.58-5.28-1.5-8.25-18.39 48.19-6.67z" class="p"/><path d="m364.38 185.44-14.75-.57-4.91-9.7 1.17-3.72 16.3 3.14 2.19 10.85z" class="s"/><path d="m337.41 218.01-2.68 9.66-17.59-6.63 5.89-35.6 6.88 6.7 7.5 25.87z" style="fill:#648e43;stroke-width:0"/><path d="m369.32 164.17 27.07-4.73-5.8-51.02-9.99-10.86-9.1-2.53-11.15 4.46-9.89 6.37 8.3 62.71 10.56-4.4z" class="s"/><path d="m376.79 118.53.14 5.51 1.98 7.58 10.58-13.74-5.24-1.95-6.54.66-.92 1.94zM373.67 118.48l-1.15-1.73-5.68.85-5.62 2.72 8.46 6.88 7.07 11.51-.9-13.86-2.18-6.37zM357.35 108.37l2.84 59.24 2 6.98-2.43 3.53-15.04-2.95-10.36-17.14 7.81-22.78 15.18-26.88z" class="z"/><path d="m372.52 116.75-6.28-.6-5.02 4.17 11.3-3.57zM377.71 116.59l5.79-1.94 5.99 3.23-11.78-1.29z" class="av"/><path d="m352.23 167.2 9.96 7.39 7.13-10.42-17.09 3.03z" class="q"/><path d="m389.34 145.54-10.58 3.3-11.69-.72 9.2 5.09 6.5-1.02 6.57-6.65z" class="y"/><path d="M385.78 123.63c-1.39-.27-2.73.59-3 1.98s.64 2.73 2.03 3 2.78-.63 3.05-2.02-.69-2.7-2.08-2.97ZM368.07 126.13c-1.39-.27-2.79.67-3.06 2.07s.68 2.74 2.07 3.01 2.73-.64 3-2.03-.63-2.78-2.02-3.05Z" class="bd"/><path d="m389.34 145.54-4.85.47-5.67-.67-5.9 1.99-5.85.79 12.08 1.45 10.19-4.03z" class="ao"/><path d="m373.67 118.48 3.08 20.23 1.89.47 1.39-.81-3.24-19.84-3.12-.05z" style="fill:#e8cab6;stroke-width:0"/><path d="m380.03 138.37-1.4 3.13-1.88-2.79 3.28-.34z" class="q"/><path d="m390.06 104.52-.81-5.54-19.55-15.12-3.44 10.29 5.24.88 8.4 5.26 2.24 2.63 3.04 1.42 4.88.18z" class="ah"/><path d="m369.7 83.86-31.1 4.04-14.36 20.39-1.21 6.25 13.79 5.41 20.53-11.58 5.33-4.42 8.82-8.92-1.8-11.17z" class="u"/><path d="m356.83 108.39-8.67 1.23-9.23 1.39-9.49 1.36-9.17 1.35-11.84 46.98 45.15-47.04 3.25-5.27z" class="ad"/><path d="m352.35 126.55-18.18 35.78-23.87 19.18-15.06-12.01 14.54-14.15 43.8-41.69-1.23 12.89z" class="u"/><path d="m349.22 127.97-38.92 53.54 19.61 10.63 9.39-12.12 4.14-25.15 5.78-26.9z" class="ad"/><path d="m353.58 113.66-4.36 14.31-4.47 25.36-8.74 18.48-6.1 20.33 10.23 5.55 5.93-29.16.4-14.45 7.68-28.28 3.2-17.43-4.17 1.68.4 3.61z" class="ah"/><path d="m354.21 125.81-4.99 2.16-3.07 10.31 2.89.52 3.36-3.18 1.81-9.81z" class="ao"/><path d="m352.4 135.62-6.25 2.66-2.25 7.5 2.77 1.51 4.25-3.79 1.48-7.88z" class="y"/><path d="m350.92 143.5-7.02 2.28-2.54 8.32 3.1 1.17 4.96-3.81 1.5-7.96z" class="ao"/><path d="m349.42 151.46-8.06 2.64-2.77 9.21 2.63.7 6.51-3.83 1.69-8.72z" class="y"/><path d="m347.73 160.18-9.14 3.13-2.58 8.5 10.06-3.28 1.66-8.35z" class="ao"/><path d="m394.62 103-5.37-4.02-4.07 5.36 5.45 4.09 3.99-5.43z" class="v"/><path d="m385.18 104.34-5.28-4.05-4.03 5.38 5.46 4.08 3.85-5.41z" class="af"/><path d="m375.87 105.67-5.21-4.14-3.99 5.43 5.38 4.03 3.82-5.32z" class="v"/><path d="m366.67 106.96-5.24-4-4.08 5.41 5.42 4.04 3.9-5.45z" class="af"/><path d="m357.35 108.37-5.21-4.18-3.98 5.43 5.42 4.04 3.77-5.29z" class="v"/><path d="m348.16 109.62-5.14-4.07-4.09 5.46 5.48 3.99 3.75-5.38z" class="af"/><path d="m338.93 111.01-5.47-4-4.02 5.36 5.38 4.12 4.11-5.48z" class="v"/><path d="m329.44 112.37-5.2-4.08-3.97 5.43 5.24 4.03 3.93-5.38z" class="af"/><path d="m336.59 223.13-8.25 21.91 16.37-2.38 24.48-27.34-32.6 7.81z" class="am"/><path d="m317.14 221.04 27.58-6.91 1.41 7.02-4.77 4.76-9.52 9.83-14.7-14.7z" class="ba"/><path d="m331.84 235.74 17.61-12.82 4.76-7.73-9.49-1.06-12.88 21.61z" class="p"/><path d="m344.72 214.13 7.04-12.63 6.55 6.51 3.08 7.98-11.94 6.93-4.73-8.79z" class="z"/><path d="m351.76 201.5 13.99 4.05 1.68 7.66-6.04 2.78-6.28-9.44-3.35-5.05z" class="s"/><path d="m341.87 235.2 13.24-28.65 4.49 4.8 1.18 6.63-13.05 19.92-5.86-2.7z" style="fill:#e1ce7f;stroke-width:0"/><path d="m355.11 206.55 32.8-5.99 24.88-12.6 10 6.05-17.8 15.38-39.24 4.89-6.15-2.93-4.49-4.8z" class="aj"/><path d="m399.46 202.68 23.33-8.67-8.15 14-9.65 17.9-17.78 6.15-7.18-7.43 19.43-21.95z" class="ag"/><path d="m399.46 202.68-12.25 29.38-7.18 2.48v-9.91l13.23-19.64 6.2-2.31z" style="fill:#af7546;stroke-width:0"/><path d="m359.6 211.35 27.61-5.22 2.13 3.26L378.39 231l-5.87 4.32-24.79 2.58 11.87-26.55z" style="fill:#9f7928;stroke-width:0"/><path d="m387.21 206.13-14.69 29.19 7.51-.78 13.23-29.55-6.05 1.14z" style="fill:#9b6533;stroke-width:0"/><path d="m387.91 200.56 5.35 4.43-.27-7.01-5.08 2.58z" class="ab"/><path d="m328.34 245.04 40.85-29.72 2.49 32.78-5.93 22.07-28.36-6.19-9.05-18.94z" class="t"/><path d="m369.19 215.32 2.49 38.99 7.34 12.34 25.45-15.56 10.17-43.08-45.45 7.31z" class="bg"/><path d="m369.19 215.32 9.83 51.33-13.27 3.52 3.44-54.85zM379.02 266.65l35.62-58.64 7.12 44.65-42.74 13.99z" class="ac"/><path d="m402.17 187.96-9.29 5.18 8.68-2.74.61-2.44z" class="z"/><path d="m386.81 169.38 8.81-2.36 2.38.6 1.46-1.63 6.95 2.16.66 1.53 3.27-.3 4.64 5.21-.24 1.28 3.39 2.25-9.42 4.16-1.97-.57-1.75 2.22-6.11-1.47-.88-1.51-2.38.74-5.34-7.48v-1.87l-3.47-2.96z" class="ab"/><path d="m404.99 183.93-2.52-8.62 6.24 6.97-3.72 1.65z" class="ag"/><path d="m418.13 178.12-15.66-2.81 12.51-.72 3.15 3.53zM410.34 169.38l-7.87 5.93 3.94-7.16 3.93 1.23zM399.46 165.99l3.01 9.32-6.85-8.29 3.84-1.03z" class="ag"/><path d="m386.81 169.38 15.66 5.93-12.19-1.1-3.47-4.83zM395.62 181.69l6.85-6.38-3.59 7.15-3.26-.77z" class="ag"/><path d="m398 173.61 6.31-1.64 2.57 4.13-3.49 2.35-3.44-.8-1.95-4.04z" class="aj"/></g></svg>